<?xml version="1.0" standalone="no"?>
<!DOCTYPE svg PUBLIC "-//W3C//DTD SVG 20010904//EN"
 "http://www.w3.org/TR/2001/REC-SVG-20010904/DTD/svg10.dtd">
<svg version="1.0" xmlns="http://www.w3.org/2000/svg"
 width="800.000000pt" height="800.000000pt" viewBox="0 0 800.000000 800.000000"
 preserveAspectRatio="xMidYMid meet">
<metadata>
Created by potrace 1.14, written by Peter Selinger 2001-2017
</metadata>
<g transform="translate(0.000000,800.000000) scale(0.100000,-0.100000)"
fill="#000000" stroke="none">
<path d="M3302 5281 c-84 -14 -142 -105 -142 -225 0 -27 -7 -115 -15 -195 -8
-80 -21 -227 -30 -326 -9 -99 -20 -218 -26 -265 -6 -47 -13 -151 -16 -231 -6
-140 -5 -148 17 -184 34 -56 78 -77 316 -155 120 -40 235 -78 254 -86 82 -31
75 -59 78 304 l2 323 -23 22 c-13 12 -44 38 -70 57 -46 35 -71 78 -61 104 9
24 -25 76 -60 93 -48 23 -97 11 -135 -33 -37 -41 -40 -84 -11 -132 25 -40 63
-56 115 -47 73 12 75 11 168 -70 16 -14 17 -38 15 -283 l-3 -267 -25 -3 c-33
-3 -455 140 -481 164 -12 11 -30 37 -41 58 -19 37 -19 46 -9 125 6 47 16 136
21 196 13 160 29 329 40 420 5 44 14 145 21 225 18 238 23 275 42 303 38 58
47 60 300 58 128 -1 238 3 245 8 8 4 12 17 10 27 -3 18 -17 19 -228 20 -124 1
-244 -1 -268 -5z m223 -834 c20 -29 19 -47 -7 -74 -36 -38 -82 -25 -101 30
-14 38 33 80 75 69 10 -2 25 -14 33 -25z"/>
<path d="M4234 5275 c-17 -42 -6 -44 228 -43 123 0 233 0 245 -1 37 -2 91 -57
97 -99 9 -53 37 -367 46 -502 7 -114 21 -247 41 -410 6 -47 13 -132 16 -190 6
-118 -4 -152 -55 -189 -16 -11 -131 -54 -257 -96 -214 -71 -230 -75 -242 -59
-10 13 -13 79 -13 262 0 212 2 248 17 273 10 16 21 29 25 29 4 0 23 14 42 31
37 32 47 34 112 23 71 -11 134 44 134 116 0 45 -65 110 -109 110 -70 0 -121
-51 -121 -119 0 -41 -1 -42 -115 -135 l-30 -24 0 -326 0 -326 22 0 c12 0 37 6
55 14 18 7 58 21 88 31 30 9 64 20 75 25 11 5 29 11 40 13 72 19 281 98 314
120 30 20 44 39 60 82 24 62 26 92 11 162 -6 26 -14 102 -20 168 -17 208 -37
442 -60 690 -35 387 -30 382 -438 384 -171 1 -204 -1 -208 -14z m339 -806 c29
-16 37 -28 37 -61 0 -28 -31 -58 -59 -58 -23 0 -61 41 -61 66 0 12 12 32 26
43 31 25 29 24 57 10z"/>
<path d="M4368 5063 c7 -3 16 -2 19 1 4 3 -2 6 -13 5 -11 0 -14 -3 -6 -6z"/>
<path d="M3855 3300 c-3 -5 1 -10 10 -10 9 0 13 5 10 10 -3 6 -8 10 -10 10 -2
0 -7 -4 -10 -10z"/>
<path d="M4145 3300 c-3 -5 -2 -10 4 -10 5 0 13 5 16 10 3 6 2 10 -4 10 -5 0
-13 -4 -16 -10z"/>
<path d="M269 3010 c-10 -7 -7 -76 5 -87 4 -4 47 -6 95 -5 66 3 90 0 99 -10 8
-10 12 -75 14 -193 l3 -179 53 1 c28 1 57 1 63 2 7 1 9 59 8 176 -2 134 1 178
12 191 11 13 29 15 104 13 l90 -4 3 48 c2 33 -1 47 -10 47 -122 4 -532 4 -539
0z"/>
<path d="M927 3012 c-8 -12 -11 -462 -3 -469 3 -3 27 -6 53 -7 l48 -1 0 51 c0
80 7 84 151 84 72 0 134 -5 148 -12 25 -11 46 -57 46 -100 0 -10 3 -18 8 -19
47 -5 79 -4 87 2 19 14 2 122 -23 147 -27 27 -28 36 -1 63 29 29 34 50 31 128
-3 63 -7 73 -35 101 l-31 30 -222 0 c-122 0 -229 3 -237 6 -8 3 -17 1 -20 -4z
m418 -117 c32 -32 32 -74 0 -109 l-25 -27 -142 3 -143 3 -3 64 c-2 35 -1 70 2
77 4 11 37 14 146 14 136 0 142 -1 165 -25z"/>
<path d="M1589 3009 c-5 -3 -8 -103 -7 -238 l3 -233 238 1 c130 0 241 2 246 5
4 3 5 22 2 42 l-6 36 -185 2 -185 1 -9 37 c-7 28 -6 42 6 60 15 22 19 23 184
23 l169 0 0 35 0 35 -170 3 c-145 2 -172 5 -182 19 -18 23 -16 58 4 78 14 15
39 16 192 14 l175 -3 8 34 c3 19 3 39 -1 43 -9 9 -468 15 -482 6z"/>
<path d="M2174 3005 c-3 -6 -3 -113 -2 -239 l3 -229 235 1 c129 1 241 2 248 2
9 0 12 12 10 41 l-3 42 -172 -2 c-194 -2 -213 2 -213 52 0 64 7 66 195 69
l170 3 0 35 0 35 -175 3 c-186 3 -190 4 -190 54 0 55 15 60 209 57 l176 -3 3
42 c2 23 0 42 -5 42 -172 6 -486 3 -489 -5z"/>
<path d="M3811 3009 c-17 -4 -42 -14 -56 -23 -23 -15 -25 -22 -25 -101 0 -118
5 -123 157 -145 39 -5 103 -10 142 -10 83 0 118 -12 130 -42 23 -60 -33 -88
-174 -88 -104 0 -107 1 -133 29 -31 33 -103 48 -122 26 -16 -20 -1 -62 32 -90
29 -25 31 -25 224 -25 261 0 274 7 274 140 0 39 -4 79 -10 89 -20 38 -81 51
-239 51 -131 0 -150 2 -164 18 -26 28 -21 67 10 92 25 20 38 21 135 18 92 -3
110 -6 130 -24 28 -26 112 -38 128 -19 13 15 -7 72 -32 93 -17 13 -351 22
-407 11z"/>
<path d="M4360 3015 c0 -2 59 -77 130 -165 l130 -162 0 -73 c0 -49 4 -74 13
-77 10 -3 47 -3 90 1 4 1 7 34 5 74 -3 83 -25 46 171 285 52 62 92 114 90 116
-2 2 -35 1 -72 -2 l-68 -4 -82 -99 c-45 -55 -87 -99 -93 -99 -7 0 -43 40 -82
88 -39 48 -77 94 -85 100 -13 11 -147 26 -147 17z"/>
<path d="M5759 3006 c-14 -15 -11 -86 4 -87 6 -1 47 0 90 1 119 3 118 5 117
-201 -1 -93 0 -172 3 -176 3 -4 29 -8 59 -7 l53 0 3 179 c2 117 6 183 14 193
9 10 34 13 102 11 l91 -3 6 39 c4 22 4 43 0 48 -11 11 -530 14 -542 3z"/>
<path d="M6413 3007 c-6 -10 -5 -458 1 -464 3 -4 391 -6 479 -3 13 0 8 80 -5
80 -7 1 -86 0 -175 0 -99 -1 -171 3 -183 10 -25 13 -28 81 -5 100 11 9 64 13
183 14 l167 1 0 35 0 35 -174 1 c-187 2 -191 3 -191 56 0 54 16 59 199 58 91
-1 172 -1 179 -1 13 1 18 81 5 81 -5 0 -113 1 -241 3 -129 1 -236 -1 -239 -6z"/>
<path d="M7019 3009 c-5 -3 -8 -105 -7 -240 l3 -234 45 0 45 0 3 203 2 202 24
0 c28 0 37 -11 55 -65 8 -22 36 -87 63 -144 28 -58 59 -124 69 -148 18 -43 19
-43 69 -43 l51 0 53 113 c73 151 106 227 106 242 0 19 38 48 54 42 13 -5 16
-38 18 -204 l3 -198 40 2 c22 1 43 2 48 2 4 1 7 107 7 236 0 181 -3 235 -12
236 -48 2 -200 1 -203 -3 -5 -4 -111 -230 -130 -275 -8 -18 -21 -33 -29 -33
-18 0 -46 27 -46 44 0 7 -27 70 -59 139 l-60 126 -101 3 c-56 2 -106 0 -111
-3z"/>
<path d="M2801 2981 c-28 -26 -31 -35 -31 -85 0 -68 21 -123 52 -135 33 -14
179 -31 263 -31 58 0 78 -4 99 -21 33 -26 33 -49 0 -80 -23 -22 -36 -24 -130
-27 -126 -5 -146 0 -164 33 -12 22 -20 25 -67 25 -53 0 -53 0 -53 -31 0 -22 9
-40 31 -60 l31 -29 204 0 204 0 32 29 c32 29 33 32 33 109 0 129 -24 142 -256
142 -132 0 -148 2 -164 20 -19 21 -16 51 9 85 13 18 26 20 133 20 115 0 120
-1 152 -27 37 -32 107 -39 117 -13 9 22 -2 57 -26 83 -20 21 -26 22 -229 22
l-209 0 -31 -29z"/>
<path d="M5149 2982 c-26 -23 -32 -36 -34 -77 -7 -139 23 -160 249 -171 125
-6 152 -10 168 -26 29 -29 23 -65 -14 -88 -28 -17 -51 -20 -141 -20 -108 0
-109 0 -135 30 -23 26 -33 30 -79 30 -57 0 -61 -4 -43 -57 20 -56 47 -63 260
-63 205 0 235 6 257 52 18 37 24 106 13 149 -17 61 -44 70 -234 76 -89 3 -169
10 -178 15 -29 15 -24 72 9 98 25 20 38 21 135 18 96 -3 109 -5 132 -27 30
-28 114 -39 123 -15 8 21 -5 62 -27 84 -19 19 -34 20 -225 20 l-205 0 -31 -28z"/>
</g>
</svg>
